<?xml version="1.0" encoding="UTF-8" standalone="no"?>
<!-- Generator: Adobe Illustrator 24.3.0, SVG Export Plug-In . SVG Version: 6.00 Build 0)  -->

<svg
   version="1.1"
   id="Layer_1"
   x="0px"
   y="0px"
   viewBox="60 330 490 130"
   style="enable-background:new 0 0 595.28 841.89;"
   xml:space="preserve"
   xmlns="http://www.w3.org/2000/svg">
<defs id="defs65" />
<style
   type="text/css"
   id="style1">
	.st0{fill:#FFFEFE;}
	.st1{fill:#EE7B23;}
	.st2{fill:#EE7C23;}
	.st3{fill:#3A3886;}
	.st4{fill:#3A3786;}
	.st5{fill:#393786;}
	.st6{fill:#3A3787;}
	.st7{fill:#3A3887;}
	.st8{fill:#3A3386;}
	.st9{fill:#FDFDFE;}
	.st10{fill:#EE7E26;}
	.st11{fill:#EF812A;}
	.st12{fill:#9690BC;}
	.st13{fill:#9792BE;}
	.st14{fill:#9A96C0;}
	.st15{fill:#9490BD;}
	.st16{fill:#817CB1;}
	.st17{fill:#8E88B8;}
	.st18{fill:#8C88B8;}
	.st19{fill:#9591BE;}
	.st20{fill:#807CB0;}
	.st21{fill:#7C76AE;}
	.st22{fill:#6B65A3;}
	.st23{fill:#827CAF;}
	.st24{fill:#827CB0;}
	.st25{fill:#827DB0;}
	.st26{fill:#948FBE;}
	.st27{fill:#69649C;}
	.st28{fill:#7570AA;}
	.st29{fill:#FAFAFC;}
	.st30{fill:#F3F3F7;}
	.st31{fill:#F3F2F7;}
	.st32{fill:#3D3587;}
	.st33{fill:#E5E4EF;}
</style>
<g id="g65">
	<path
   class="st0"
   d="M306.28,330.62c81.2,0,162.39,0.01,243.59-0.04c1.71,0,2.09,0.38,2.09,2.09c-0.05,49.03-0.05,98.06,0,147.1   c0,1.56-0.31,1.86-1.86,1.86c-162.54-0.05-325.09-0.05-487.63,0c-1.56,0-1.86-0.3-1.86-1.86c0.05-49.11,0.05-98.22,0-147.32   c0-1.56,0.31-1.86,1.86-1.86C143.74,330.63,225.01,330.62,306.28,330.62z"
   id="path1" />
	<path
   class="st1"
   d="M159.06,450.97c-16.47-32.76-32.9-65.45-49.32-98.13c0.67-0.7,1.39-0.39,2.01-0.4   c24.63-0.02,49.26,0,73.89-0.05c1.8,0,2.46,0.31,2.44,2.31c-0.1,12.5-0.06,25-0.04,37.5c0,1-0.14,1.91-0.6,2.83   c-9.27,18.46-18.51,36.93-27.76,55.4C159.59,450.61,159.36,450.72,159.06,450.97z"
   id="path2" />
	<path
   class="st1"
   d="M106.96,358.33c2.85,5.64,5.72,11.31,8.57,16.98c13.18,26.24,26.33,52.49,39.57,78.7   c1.01,1.99,0.49,2.12-1.37,2.12c-24.56-0.04-49.12-0.05-73.68,0.01c-1.67,0-2.16-0.35-2.15-2.1c0.08-12.43,0.05-24.85,0.03-37.28   c0-1,0.15-1.91,0.61-2.83c9.12-18.12,18.21-36.25,27.32-54.37C106.09,359.1,106.21,358.54,106.96,358.33z"
   id="path3" />
	<path
   class="st1"
   d="M316.08,405.74c4.41-5.66,8.49-10.9,12.58-16.14c7.65-9.78,15.33-19.54,22.93-29.36   c0.99-1.28,2.02-1.77,3.62-1.74c4.89,0.1,9.78,0.03,14.7,0.03c-0.03,1.09-0.72,1.54-1.16,2.11c-11.32,14.5-22.67,28.98-33.97,43.5   c-0.87,1.12-1.75,1.65-3.21,1.62C326.59,405.69,321.59,405.74,316.08,405.74z"
   id="path4" />
	<path
   class="st1"
   d="M469.9,382.2c0-3.33-0.02-6.67,0-10c0.06-7.78,3.76-12.17,11.47-13.26c5.8-0.82,11.66-0.27,17.49-0.4   c1.04-0.02,1.24,0.51,1.22,1.43c-0.05,2.35-0.11,4.7,0.01,7.04c0.07,1.39-0.5,1.65-1.71,1.64c-3.71-0.05-7.43-0.04-11.14-0.02   c-3.07,0.02-3.98,0.9-3.98,3.91c-0.02,6.44,0.02,12.88-0.02,19.32c-0.01,1.86,0.47,3.32,2.5,3.75c0.8,0.17,0.87,0.65,0.87,1.33   c-0.03,2.5-0.06,5,0.01,7.5c0.03,1.02-0.33,1.33-1.3,1.31c-3.3-0.07-6.5-0.54-9.44-2.13c-3.63-1.96-5.64-5.07-5.83-9.14   c-0.19-4.08-0.04-8.18-0.04-12.27C469.96,382.2,469.93,382.2,469.9,382.2z"
   id="path5" />
	<path
   class="st1"
   d="M520.19,382.15c0,3.48,0.03,6.97-0.01,10.45c-0.08,7.72-4.68,12.5-12.84,12.96c-5.29,0.3-10.6,0.11-15.9,0.21   c-1.29,0.02-1.48-0.56-1.45-1.65c0.06-2.27,0.1-4.55-0.01-6.81c-0.07-1.36,0.45-1.67,1.69-1.65c3.71,0.06,7.42,0.04,11.14,0.02   c3.06-0.02,3.99-0.9,4-3.89c0.03-6.44,0-12.87,0.01-19.31c0-1.81-0.38-3.36-2.46-3.77c-0.88-0.17-1-0.7-0.98-1.48   c0.04-2.42,0.03-4.85,0.01-7.27c-0.01-0.75,0.02-1.27,0.98-1.42c5.43-0.87,12.36,2.5,14.65,7.2c0.85,1.74,1.16,3.59,1.16,5.51   C520.19,374.88,520.18,378.51,520.19,382.15C520.19,382.15,520.19,382.15,520.19,382.15z"
   id="path6" />
	<path
   class="st1"
   d="M398.72,353.03c9.12,17.68,18.04,34.98,27.19,52.72c-3.49,0-6.72-0.27-9.87,0.07   c-3.46,0.38-5.16-0.89-6.66-4.03c-5.44-11.39-11.21-22.63-16.92-33.89c-0.55-1.09-0.52-1.86,0.05-2.91   C394.59,361.16,396.54,357.26,398.72,353.03z"
   id="path7" />
	<path
   class="st1"
   d="M236.1,353.04c1.98,3.82,3.82,7.34,5.65,10.87c6.86,13.31,13.69,26.64,20.61,39.93   c0.89,1.7,0.51,1.97-1.2,1.93c-3.56-0.08-7.12-0.06-10.68,0c-1.12,0.02-1.76-0.31-2.29-1.36c-6.11-12.25-12.27-24.48-18.41-36.72   c-0.3-0.6-0.69-1.12-0.29-1.89C231.66,361.66,233.79,357.51,236.1,353.04z"
   id="path8" />
	<path
   class="st1"
   d="M412.51,358.91c0.54-0.57,1.02-0.36,1.44-0.36c16.51-0.01,33.03,0.03,49.54-0.06   c2.12-0.01,2.78,0.59,2.58,2.67c-0.19,1.95-0.11,3.94-0.02,5.9c0.06,1.21-0.4,1.58-1.56,1.58c-14.77-0.02-29.54-0.03-44.31,0.01   c-1.1,0-1.62-0.57-2.14-1.36C416.22,364.5,414.37,361.73,412.51,358.91z"
   id="path9" />
	<path
   class="st1"
   d="M289.92,405.75c-7.12,0-14.24-0.07-21.35,0.04c-1.85,0.03-2.38-0.53-2.23-2.3c0.16-1.88,0.15-3.79,0-5.67   c-0.13-1.7,0.43-2.2,2.14-2.18c7.57,0.09,15.14,0.04,22.71,0.04c6.59,0,13.18,0.1,19.76-0.06c2.18-0.05,2.73,0.65,2.54,2.67   c-0.17,1.8-0.14,3.64-0.01,5.44c0.12,1.58-0.37,2.07-1.99,2.05C304.31,405.7,297.11,405.75,289.92,405.75z"
   id="path10" />
	<path
   class="st1"
   d="M279.83,375.41c0,5-0.06,10,0.04,14.99c0.03,1.51-0.42,1.99-1.92,1.95c-3.33-0.09-6.67-0.06-10-0.01   c-1.13,0.02-1.6-0.3-1.6-1.54c0.04-10.22,0.04-20.45,0-30.67c0-1.19,0.38-1.61,1.55-1.6c3.41,0.04,6.82,0.08,10.23-0.01   c1.48-0.04,1.74,0.59,1.72,1.9C279.79,365.41,279.83,370.41,279.83,375.41z"
   id="path11" />
	<path
   class="st1"
   d="M449.17,389.06c0,4.92-0.05,9.84,0.03,14.77c0.02,1.46-0.35,2-1.89,1.95c-3.33-0.11-6.67-0.07-10-0.02   c-1.16,0.02-1.56-0.34-1.56-1.56c0.05-10.15,0.04-20.29,0-30.44c-0.01-1.26,0.33-1.75,1.65-1.73c3.33,0.07,6.67,0.08,10,0   c1.39-0.03,1.82,0.41,1.8,1.81C449.12,378.91,449.17,383.99,449.17,389.06z"
   id="path12" />
	<path
   class="st1"
   d="M371.53,405.75c6.15-11.92,12.08-23.43,18.17-35.23c2.33,4.61,4.45,8.86,6.63,13.09   c0.42,0.82,0.12,1.41-0.23,2.1c-3.12,6.13-6.23,12.26-9.32,18.41c-0.46,0.91-0.83,1.69-2.11,1.67   C380.44,405.7,376.21,405.75,371.53,405.75z"
   id="path13" />
	<path
   class="st1"
   d="M227.08,370.51c2.42,4.8,4.62,9.16,6.8,13.52c0.32,0.64-0.14,1.15-0.41,1.69c-3.1,6.14-6.24,12.27-9.28,18.44   c-0.59,1.19-1.27,1.64-2.61,1.61c-4.08-0.09-8.16-0.03-12.65-0.03C215,393.96,220.93,382.46,227.08,370.51z"
   id="path14" />
	<path
   class="st2"
   d="M348.4,358.73c-2.48,3.16-4.78,6.05-7.02,8.99c-0.58,0.76-1.27,0.9-2.16,0.9c-6.58-0.02-13.16-0.01-19.74,0.02   c-0.9,0-1.6-0.16-2.13-0.97c-1.88-2.91-3.81-5.79-5.88-8.94C323.81,358.73,335.9,358.73,348.4,358.73z"
   id="path15" />
	<path
   class="st1"
   d="M337.92,405.74c2.61-3.34,4.91-6.23,7.15-9.16c0.58-0.76,1.27-0.93,2.16-0.92c6.51,0.02,13.01,0.04,19.52-0.01   c1.27-0.01,1.76,0.37,1.72,1.67c-0.08,2.34-0.04,4.69-0.01,7.03c0.01,0.91-0.25,1.4-1.27,1.4   C357.6,405.74,348.01,405.74,337.92,405.74z"
   id="path16" />
	<path
   class="st3"
   d="M513.82,445.76c0-5.01,0.04-9.83-0.02-14.64c-0.02-1.34,0.11-2.04,1.78-2.05c1.7,0,1.94,0.64,1.93,2.12   c-0.07,7.27-0.02,14.54-0.06,21.8c0,0.71,0.55,1.82-0.76,2.02c-1.17,0.18-2.09,0.01-2.75-1.32c-2.42-4.88-5-9.67-7.55-14.48   c-0.22-0.42-0.25-1.06-1.08-1.18c0,4.99-0.04,9.94,0.02,14.88c0.02,1.39-0.04,2.22-1.86,2.2c-1.72-0.02-1.94-0.68-1.93-2.15   c0.07-7.19,0.01-14.39,0.06-21.58c0.01-0.76-0.63-1.97,0.78-2.22c1.23-0.21,2.27-0.07,2.98,1.35c2.38,4.73,4.91,9.38,7.38,14.06   C512.96,444.98,513.02,445.46,513.82,445.76z"
   id="path17" />
	<path
   class="st4"
   d="M265.47,442.02c0-3.71,0.04-7.42-0.02-11.14c-0.02-1.19,0.18-1.83,1.58-1.77c2.5,0.12,5.01-0.03,7.5,0.14   c2.92,0.21,5.6,1.09,6.61,4.26c1.04,3.27,0.06,5.94-2.97,8.18c-0.83,0.61-0.47,1.09-0.24,1.73c1.12,3.13,2.27,6.26,3.29,9.42   c0.21,0.64,1.22,1.46,0.1,2.14c-1.02,0.62-3.55-0.09-3.9-1.05c-1.13-3.13-2.2-6.28-3.31-9.42c-0.3-0.85-0.49-1.67-1.74-1.74   c-1.72-0.09-2.65,0.17-2.5,2.27c0.2,2.79-0.07,5.61,0.09,8.4c0.11,1.91-1.04,1.62-2.16,1.6c-1.15-0.02-2.44,0.42-2.36-1.66   C265.58,449.6,265.47,445.81,265.47,442.02z"
   id="path18" />
	<path
   class="st4"
   d="M227.47,442.53c-0.12,2.07,0.24,4.5-0.32,6.89c-0.23,0.96-0.44,1.94-1.03,2.74   c-2.74,3.71-6.64,3.46-10.51,2.86c-3.45-0.54-5.44-2.58-5.63-6.13c-0.25-4.59-0.25-9.22,0.01-13.82c0.2-3.44,2.39-5.38,5.83-5.92   c1.04-0.16,2.11-0.27,3.16-0.25c5.85,0.11,8.4,2.68,8.49,8.53C227.49,439.01,227.47,440.6,227.47,442.53z"
   id="path19" />
	<path
   class="st4"
   d="M378.6,441.8c0-3.7,0.02-7.41-0.01-11.11c-0.01-0.93,0.03-1.61,1.27-1.57c2.87,0.1,5.76-0.07,8.61,0.19   c4.48,0.41,6.59,2.84,6.65,7.32c0.04,3.48,0.05,6.95,0,10.43c-0.07,4.98-2.42,7.5-7.44,7.87c-2.48,0.18-4.99,0.03-7.48,0.15   c-1.34,0.06-1.68-0.46-1.62-1.71c0.09-1.96,0.03-3.93,0.03-5.89C378.6,445.58,378.6,443.69,378.6,441.8z"
   id="path20" />
	<path
   class="st5"
   d="M480.43,441.87c0-2.04-0.1-4.09,0.02-6.12c0.24-3.9,2.3-6.08,6.15-6.63c1.19-0.17,2.41-0.26,3.61-0.19   c5.39,0.34,7.72,2.84,7.76,8.25c0.02,3.32,0.04,6.65,0,9.97c-0.07,5.49-2.89,8.12-8.63,8.15c-6.05,0.04-8.82-2.42-8.94-8.01   c-0.04-1.81-0.01-3.63-0.01-5.44C480.41,441.87,480.42,441.87,480.43,441.87z"
   id="path21" />
	<path
   class="st1"
   d="M162.4,455.89c8.47-16.88,16.83-33.53,25.18-50.17c0.29,4.47,0.81,8.68-1.48,12.96   c-6.01,11.2-11.51,22.67-17.21,34.04C167.02,456.43,167.02,456.43,162.4,455.89z"
   id="path22" />
	<path
   class="st1"
   d="M78.16,403.78c-0.72-5.57,0.13-10.26,2.64-14.98c6.15-11.54,11.84-23.32,17.67-35.03   c1.3-2.61,3.46-0.68,5.63-1.67C95.32,369.6,86.83,386.51,78.16,403.78z"
   id="path23" />
	<path
   class="st4"
   d="M411.38,439.37c0-2.88,0.11-5.76-0.04-8.64c-0.1-1.91,1.07-1.58,2.19-1.6c1.19-0.03,2.13-0.16,2.08,1.68   c-0.15,5.3,0.01,10.61-0.07,15.91c-0.11,7.53-7.22,11.37-13.83,7.54c-2.02-1.17-3.01-3.1-3.06-5.28   c-0.17-6.21-0.14-12.42-0.16-18.64c-0.01-2.06,1.61-1,2.52-1.18c0.94-0.19,1.72-0.09,1.69,1.34c-0.09,5.08-0.04,10.15-0.03,15.23   c0,0.98,0.02,1.97,0.12,2.95c0.27,2.58,1.62,3.83,4.13,3.87c2.64,0.05,4.2-1.19,4.34-3.87c0.17-3.1,0.04-6.21,0.04-9.32   C411.31,439.37,411.34,439.37,411.38,439.37z"
   id="path24" />
	<path
   class="st4"
   d="M418.97,441.91c0.13-2.78-0.39-5.59,0.42-8.35c0.46-1.55,1.27-2.82,2.67-3.5c3.46-1.66,7.06-1.7,10.52-0.1   c2.31,1.06,3.93,5.54,2.96,7.75c-0.58,1.32-1.87,0.43-2.82,0.62c-0.75,0.15-1.36-0.1-1.3-1.07c0.03-0.53,0.02-1.06,0-1.59   c-0.11-2.89-0.97-3.93-3.43-4.11c-2.8-0.2-4.49,0.96-4.61,3.73c-0.21,4.45-0.21,8.93-0.04,13.38c0.12,2.93,1.56,3.99,4.46,3.88   c2.6-0.09,3.38-1.11,3.67-4.15c0.1-1.05-1.12-2.93,1.46-2.96c2.71-0.03,2.78-0.06,2.65,2.66c-0.22,4.9-2.59,7.12-7.7,7.2   c-5.72,0.09-8.6-2.15-8.91-7.05C418.86,446.15,418.97,444.02,418.97,441.91z"
   id="path25" />
	<path
   class="st6"
   d="M446.47,429.19c1.71-0.47,2.21,0.49,2.59,1.95c1.88,7.31,3.87,14.6,5.75,21.92c0.15,0.58,1.22,1.83-0.31,1.9   c-1.14,0.06-2.8,1.02-3.52-0.9c-0.11-0.28-0.14-0.59-0.21-0.88c-1.19-4.96-1.19-4.93-6.25-4.75c-1.1,0.04-1.65,0.35-1.84,1.47   c-0.23,1.34-0.63,2.65-0.95,3.97c-0.17,0.73-0.48,1.12-1.35,1.21c-2.93,0.29-3.12,0.11-2.36-2.75c1.87-7.01,3.81-14,5.54-21.05   C444,429.5,444.71,428.78,446.47,429.19z"
   id="path26" />
	<path
   class="st4"
   d="M326.13,448.46c-3.69,0-3.69,0-4.67,4.1c-0.61,2.57-1.16,2.92-3.71,2.5c-0.8-0.13-0.96-0.34-0.73-1.17   c2.12-7.88,4.17-15.78,6.25-23.67c0.48-1.8,1.98-0.86,3.04-1.09c1.4-0.29,1.81,0.58,2.11,1.72c1.59,6.14,3.21,12.27,4.83,18.41   c0.33,1.24,0.73,2.47,0.98,3.72c0.13,0.67,1.09,1.85-0.31,1.95c-1.18,0.08-3,1.07-3.58-1.13c-0.19-0.73-0.45-1.47-0.49-2.21   C329.69,448.94,328.43,447.81,326.13,448.46z"
   id="path27" />
	<path
   class="st4"
   d="M344.85,455.31c-4.67,0.03-7.53-2.08-8.43-6.01c-0.34-1.49,0.38-1.74,1.49-1.82c0.97-0.08,2.23-1.15,2.5,0.94   c0.28,2.2,1.35,3.87,3.82,4.09c1.58,0.14,3.09-0.05,3.88-1.69c0.75-1.55,0.3-2.96-0.76-4.2c-1.55-1.8-3.65-2.93-5.51-4.36   c-1.32-1.01-2.79-1.88-3.92-3.07c-3.27-3.42-1.59-8.88,3-9.98c2.11-0.51,4.22-0.45,6.3,0.06c2.07,0.51,3.47,1.84,4.15,3.83   c0.3,0.86,1.33,2.09-0.41,2.53c-1.14,0.29-2.75,1.55-3.1-1.15c-0.23-1.8-1.66-2.84-3.55-2.95c-1.59-0.09-3.16,0.15-3.83,1.8   c-0.67,1.65-0.1,3.16,1.3,4.23c1.63,1.24,3.33,2.36,4.98,3.57c0.97,0.71,1.96,1.43,2.84,2.26c2.69,2.54,3.56,5.54,2.46,8.12   C351.09,453.86,348.35,455.29,344.85,455.31z"
   id="path28" />
	<path
   class="st4"
   d="M293.53,455.31c-5.04,0.03-7.78-1.76-8.87-5.38c-0.31-1.03-0.79-2.17,0.92-2.38c1.16-0.15,2.62-1.25,2.94,1.19   c0.26,1.98,1.37,3.54,3.63,3.77c1.58,0.16,3.19,0.05,3.94-1.55c0.71-1.53,0.44-3.13-0.75-4.43c-1.76-1.92-4.06-3.15-6.09-4.71   c-1.02-0.78-2.11-1.48-3.04-2.36c-1.82-1.73-2.24-3.95-1.62-6.28c0.63-2.36,2.44-3.53,4.76-4.01c1.97-0.41,3.92-0.34,5.86,0.11   c2.07,0.48,3.48,1.77,4.25,3.73c0.87,2.2-0.09,3.38-2.46,3.17c-1.06-0.09-0.84-0.96-0.98-1.51c-0.43-1.75-1.48-2.82-3.23-3.07   c-1.74-0.25-3.43-0.01-4.26,1.8c-0.78,1.71,0.02,3.12,1.37,4.18c1.55,1.21,3.19,2.3,4.78,3.46c0.97,0.72,1.97,1.41,2.86,2.22   c2.8,2.54,3.7,5.33,2.59,8.06C298.81,454.59,295.95,455.17,293.53,455.31z"
   id="path29" />
	<path
   class="st4"
   d="M238.9,447.55c0.89-3.48,1.79-6.96,2.67-10.44c0.54-2.13,1.02-4.27,1.57-6.39c0.35-1.35,2.96-2.26,4.03-1.45   c0.52,0.39,0.17,0.82,0.06,1.21c-2.11,7.65-4.29,15.28-6.29,22.96c-0.4,1.53-1.19,1.61-2.42,1.64c-1.28,0.03-2.02-0.18-2.41-1.66   c-1.95-7.39-4.07-14.73-6.05-22.1c-0.17-0.63-1.44-1.89,0.23-2.08c1.24-0.14,3.11-1.04,3.66,1.37c0.69,3.02,1.55,6,2.35,9   c0.71,2.66,1.43,5.31,2.15,7.96C238.6,447.56,238.75,447.56,238.9,447.55z"
   id="path30" />
	<path
   class="st7"
   d="M363.29,442.08c0-3.79,0.04-7.58-0.02-11.36c-0.02-1.16,0.29-1.63,1.51-1.6c3.18,0.06,6.37,0.04,9.55,0.01   c0.96-0.01,1.55,0.11,1.52,1.34c-0.03,1.14-0.63,1.19-1.45,1.18c-1.74-0.01-3.49,0.04-5.23-0.02c-1.09-0.04-1.47,0.38-1.44,1.46   c0.06,1.97,0.08,3.94,0,5.91c-0.05,1.24,0.47,1.59,1.62,1.52c1.21-0.07,2.42,0.01,3.64-0.02c0.79-0.02,1.29,0.15,1.28,1.11   c0,0.95-0.33,1.43-1.32,1.33c-0.07-0.01-0.15-0.01-0.23,0c-1.56,0.14-3.63-0.71-4.58,0.36c-1.09,1.22-0.34,3.33-0.36,5.04   c-0.06,4.19-0.02,4.19,4.09,4.19c0.91,0,1.82,0.04,2.73-0.02c0.97-0.06,1.33,0.3,1.35,1.29c0.02,1.06-0.47,1.27-1.38,1.26   c-3.26-0.03-6.52-0.05-9.78,0.01c-1.25,0.02-1.52-0.49-1.5-1.63C363.32,449.66,363.29,445.87,363.29,442.08z"
   id="path31" />
	<path
   class="st8"
   d="M303.21,442.03c0-3.71,0.06-7.42-0.03-11.12c-0.03-1.4,0.39-1.84,1.79-1.8c2.95,0.1,5.9,0.02,8.85,0.04   c0.84,0.01,1.87-0.35,1.9,1.19c0.02,1.45-0.87,1.32-1.8,1.31c-1.59-0.01-3.18,0.05-4.77-0.02c-1.16-0.05-1.71,0.31-1.56,1.54   c0.07,0.6,0,1.21,0.02,1.81c0.04,1.73-0.51,3.88,0.31,5.08c0.83,1.21,3.1,0.31,4.74,0.42c0.82,0.06,1.46,0.04,1.45,1.17   c-0.02,1.01-0.42,1.23-1.36,1.3c-1.69,0.13-3.94-0.9-4.91,0.5c-0.79,1.13-0.22,3.21-0.23,4.88c-0.01,4.19,0,4.19,4.3,4.19   c0.91,0,1.82,0.03,2.72-0.01c0.95-0.04,1.12,0.48,1.11,1.28c-0.01,0.81-0.23,1.28-1.15,1.27c-3.41-0.02-6.81-0.04-10.22,0   c-1.31,0.01-1.18-0.83-1.18-1.68C303.22,449.6,303.21,445.81,303.21,442.03z"
   id="path32" />
	<path
   class="st4"
   d="M250.18,441.97c0-3.63,0.06-7.26-0.03-10.89c-0.03-1.39,0.2-2.04,1.8-1.97c3.02,0.13,6.05,0.04,9.08,0.03   c0.89,0,1.61-0.01,1.6,1.27c-0.01,1.29-0.77,1.27-1.64,1.24c-0.08,0-0.15-0.01-0.23,0c-2,0.21-4.89-0.96-5.81,0.49   c-1.23,1.95-0.29,4.84-0.38,7.32c-0.04,0.96,0.63,1.06,1.38,1.05c1.36-0.01,2.72,0.02,4.09-0.01c0.89-0.02,1.14,0.38,1.15,1.24   c0.01,0.91-0.37,1.21-1.21,1.2c-1.29-0.02-2.58,0.04-3.86-0.03c-1.17-0.06-1.62,0.37-1.58,1.57c0.08,2.12,0.11,4.24-0.01,6.35   c-0.08,1.5,0.58,1.79,1.88,1.72c1.66-0.08,3.33-0.01,4.99-0.03c0.78-0.01,1.3,0.14,1.3,1.11c0,0.88-0.17,1.44-1.22,1.43   c-3.33-0.03-6.66-0.05-9.99,0.01c-1.41,0.03-1.35-0.79-1.34-1.76C250.19,449.53,250.18,445.75,250.18,441.97z"
   id="path33" />
	<path
   class="st9"
   d="M533.7,354.91l0.05,0.14c-0.48,0.71-0.84,1.5-1.62,1.96c-0.07,0.07-0.14,0.14-0.21,0.21   c-0.48,0.96-1.54,1.13-2.32,1.67c0.02,0.11,0.03,0.23,0.04,0.34c-1.73,0.43-3.48,0.57-5.25,0.48c-1.02-0.06-1.95-0.39-2.83-0.88   c-0.56-0.02-0.79-1.22-1.59-0.45c-1-0.2-1.6-0.78-1.73-1.82c0.46-0.64-0.3-1.01-0.34-1.55c-0.51-0.73-0.63-1.62-0.91-2.44   c-0.15-1.17-0.17-2.33,0.01-3.49c0.37-0.85,0.25-1.85,0.78-2.66c0.34-0.74,1.04-1.17,1.57-1.74c0.21-0.13,0.42-0.27,0.63-0.4   c0.35-0.58,0.94-0.91,1.45-1.31c0.77-0.53,1.7-0.62,2.55-0.95c1.19-0.06,2.37-0.04,3.56-0.02c0.92,0.17,1.77,0.55,2.6,0.98   c0.67,0.41,1.28,0.92,1.98,1.29c0.65,0.89,1.3,1.78,1.94,2.68c0.21,0.78,0.32,1.58,0.54,2.36   C534.63,351.24,534.87,353.19,533.7,354.91z"
   id="path34" />
	<path
   class="st7"
   d="M460.03,443.32c0-3.26-0.07-6.52,0.03-9.77c0.05-1.49-0.39-2.1-1.91-1.93c-0.82,0.09-1.67-0.01-2.5,0.02   c-0.9,0.03-1.15-0.39-1.14-1.25c0.01-0.82,0.16-1.27,1.1-1.27c4.39,0.02,8.79,0.02,13.18,0c0.96,0,1.04,0.54,1.07,1.32   c0.03,0.93-0.37,1.16-1.2,1.21c-1.33,0.08-3.1-0.66-3.9,0.38c-0.87,1.13-0.27,2.92-0.27,4.42c-0.03,5.6-0.11,11.21,0.04,16.81   c0.05,1.96-0.98,1.82-2.25,1.79c-1.21-0.03-2.41,0.29-2.3-1.74C460.15,449.99,460.03,446.65,460.03,443.32z"
   id="path35" />
	<path
   class="st1"
   d="M188.04,426.53c0,3.17-0.02,6.34,0.01,9.5c0.01,0.8-0.32,1.46-0.66,2.14c-2.75,5.55-5.49,11.1-8.25,16.64   c-0.51,1.02-5.02,1.95-5.87,1.18c-0.65-0.59,0.04-1.1,0.28-1.58c4.19-8.38,8.4-16.74,12.6-25.11c0.49-0.97,0.97-1.95,1.46-2.93   C187.76,426.43,187.9,426.48,188.04,426.53z"
   id="path36" />
	<path
   class="st1"
   d="M78.34,382.98c-0.15-4.86-1.16-9.65,1.72-14.23c2.68-4.27,4.78-8.94,6.84-13.56c0.99-2.22,2.24-3.17,4.59-2.77   c0.57,0.1,1.18,0.01,2.16,0.01C88.45,362.81,83.39,372.9,78.34,382.98z"
   id="path37" />
	<path
   class="st4"
   d="M476.54,442.06c0,3.79-0.1,7.58,0.04,11.36c0.07,1.86-1.01,1.66-2.16,1.63c-1.11-0.02-2.22,0.31-2.19-1.59   c0.1-7.57,0.12-15.15-0.01-22.72c-0.03-1.95,1.06-1.6,2.15-1.59c1.08,0.01,2.28-0.39,2.21,1.55   C476.44,434.48,476.54,438.27,476.54,442.06z"
   id="path38" />
	<path
   class="st10"
   d="M77.94,361.22c0-2.53,0-5.06,0-7.58c0-0.51-0.06-1.18,0.68-1.18c1.25,0,2.61-0.41,3.72,0.24   c0.51,0.3-0.22,1.06-0.47,1.57c-1.14,2.35-2.32,4.69-3.48,7.03C78.24,361.28,78.09,361.25,77.94,361.22z"
   id="path39" />
	<path
   class="st11"
   d="M188.05,448.9c0,1.94-0.03,3.88,0.01,5.82c0.02,0.9-0.18,1.48-1.22,1.38c-0.8-0.08-1.87,0.39-2.35-0.25   c-0.54-0.73,0.38-1.49,0.71-2.2c0.76-1.66,1.61-3.28,2.42-4.92C187.77,448.79,187.91,448.85,188.05,448.9z"
   id="path40" />
	<path
   class="st12"
   d="M533.7,354.91c0.36-2.02,0.72-4.03,0.46-6.1c0.18-0.2,0.23-0.53,0.56-0.6   C535.11,350.56,535.97,352.97,533.7,354.91z"
   id="path41" />
	<path
   class="st13"
   d="M524.15,359.32c1.83,0.3,3.65-0.53,5.49-0.08c-2.07,1.34-4.24,1.39-6.5,0.54   C523.37,359.37,523.88,359.61,524.15,359.32z"
   id="path42" />
	<path
   class="st14"
   d="M527.82,342.43c-1.37,0-2.74,0.01-4.11,0.01c-0.21-0.16-0.53-0.22-0.58-0.55c1.89-0.58,3.77-0.66,5.64,0.07   C528.58,342.37,528.09,342.18,527.82,342.43z"
   id="path43" />
	<path
   class="st15"
   d="M517.31,348.8c0,1.37,0,2.74,0,4.12c-0.16,0.25-0.33,0.26-0.5,0.01c-0.67-1.38-0.67-2.75,0-4.13   C516.98,348.54,517.14,348.55,517.31,348.8z"
   id="path44" />
	<path
   class="st16"
   d="M517.31,348.8c-0.17,0-0.33-0.01-0.5-0.01c0.07-0.94-0.08-1.94,0.68-2.71c0.36-0.04,0.61,0.1,0.74,0.44   C517.92,347.28,517.61,348.04,517.31,348.8z"
   id="path45" />
	<path
   class="st17"
   d="M523.13,341.89c0.19,0.18,0.39,0.37,0.58,0.55c-0.75,0.31-1.51,0.62-2.26,0.93c-0.28-0.05-0.46-0.22-0.52-0.5   C521.56,342.31,522.28,341.97,523.13,341.89z"
   id="path46" />
	<path
   class="st18"
   d="M527.82,342.43c0.21-0.38,0.58-0.42,0.96-0.47c0.72,0.09,1.32,0.41,1.85,0.89c-0.05,0.29-0.33,0.34-0.53,0.47   C529.34,343.02,528.58,342.73,527.82,342.43z"
   id="path47" />
	<path
   class="st19"
   d="M524.15,359.32c-0.23,0.38-0.63,0.4-1.01,0.46c-0.85-0.02-1.59-0.31-2.19-0.94c0.04-0.29,0.31-0.34,0.48-0.48   C522.35,358.66,523.13,359.33,524.15,359.32z"
   id="path48" />
	<path
   class="st20"
   d="M516.8,352.92c0.17,0,0.34-0.01,0.5-0.01c0.31,0.76,0.62,1.51,0.93,2.27c-0.17,0.26-0.34,0.27-0.53,0.02   C517.02,354.59,516.79,353.81,516.8,352.92z"
   id="path49" />
	<path
   class="st21"
   d="M529.6,358.9c0.45-1.01,1.55-1.11,2.32-1.67C531.86,358.77,530.74,358.85,529.6,358.9z"
   id="path50" />
	<path
   class="st22"
   d="M518.23,346.53c-0.25-0.15-0.5-0.3-0.74-0.44c0.3-0.9,1.17-1.04,1.88-1.39   C518.98,345.3,518.6,345.91,518.23,346.53z"
   id="path51" />
	<path
   class="st23"
   d="M520.93,342.87c0.17,0.17,0.35,0.33,0.52,0.5c-0.49,0.31-0.97,0.61-1.46,0.92   C519.6,343.35,520.34,343.16,520.93,342.87z"
   id="path52" />
	<path
   class="st24"
   d="M532.13,357.02c0.49-0.69,0.63-1.68,1.62-1.96C533.78,356.18,533.33,356.91,532.13,357.02z"
   id="path53" />
	<path
   class="st25"
   d="M530.1,343.32c0.18-0.16,0.35-0.31,0.53-0.47c0.74,0.22,1.15,0.81,1.51,1.43   C531.22,344.45,530.71,343.78,530.1,343.32z"
   id="path54" />
	<path
   class="st26"
   d="M534.72,348.21c-0.19,0.2-0.37,0.4-0.56,0.6c-0.35-0.6-0.45-1.22-0.09-1.86   C534.67,347.18,534.66,347.72,534.72,348.21z"
   id="path55" />
	<path
   class="st27"
   d="M517.7,355.2c0.18-0.01,0.35-0.01,0.53-0.02c-0.03,0.46,1.54,0.9,0.02,1.38   C518.07,356.11,517.89,355.66,517.7,355.2z"
   id="path56" />
	<path
   class="st28"
   d="M521.44,358.36c-0.16,0.16-0.32,0.32-0.48,0.48c-0.33-0.15-0.65-0.3-0.98-0.46   C520.44,356.81,520.95,358.23,521.44,358.36z"
   id="path57" />
	<path
   class="st29"
   d="M269.9,435.99c0-0.3-0.09-0.64,0.02-0.9c0.51-1.16-1.32-3.26,1.32-3.53c3.31-0.34,5.35,0.76,5.82,2.98   c0.57,2.67-0.35,4.77-2.38,5.46c-0.07,0.02-0.15,0.03-0.22,0.05C270.48,441.2,269.9,440.68,269.9,435.99z"
   id="path58" />
	<path
   class="st9"
   d="M222.9,442.24c0,2.19,0.11,4.38-0.03,6.56c-0.16,2.65-1.42,3.71-4.11,3.76c-2.87,0.06-4.32-0.94-4.42-3.64   c-0.17-4.59-0.16-9.2,0.01-13.8c0.09-2.53,1.61-3.59,4.28-3.58c2.67,0.02,4.06,1.12,4.23,3.67   C223.01,437.55,222.89,439.9,222.9,442.24C222.89,442.24,222.9,442.24,222.9,442.24z"
   id="path59" />
	<path
   class="st9"
   d="M382.96,442.02c0-2.95,0.06-5.9-0.03-8.85c-0.04-1.23,0.38-1.52,1.55-1.56c4.77-0.17,6.23,1.07,6.24,5.78   c0.01,3.78,0.27,7.56-0.19,11.33c-0.37,3.06-4.35,5.13-7.07,3.73c-0.74-0.38-0.48-1.02-0.49-1.59   C382.95,447.92,382.96,444.97,382.96,442.02z"
   id="path60" />
	<path
   class="st9"
   d="M493.43,442.02c0,2.34,0.14,4.69-0.04,7.01c-0.2,2.57-1.41,3.49-4.06,3.53c-2.81,0.05-4.16-0.88-4.38-3.44   c-0.39-4.66-0.35-9.35-0.03-14.02c0.17-2.55,1.62-3.58,4.3-3.57c2.66,0.02,3.9,1.09,4.23,3.68c0.03,0.22,0.06,0.45,0.06,0.68   c0,2.04,0,4.08,0,6.11C493.49,442.02,493.46,442.02,493.43,442.02z"
   id="path61" />
	<path
   class="st30"
   d="M446.5,434.66c0.85,3.55,1.64,6.9,2.45,10.24c0.19,0.8-0.12,1.02-0.9,1.14c-4.11,0.59-4.51,0.2-3.61-3.77   c0.54-2.42,1.09-4.84,1.64-7.26C446.1,434.95,446.19,434.91,446.5,434.66z"
   id="path62" />
	<path
   class="st31"
   d="M326,434.98c0.81,3.39,1.62,6.79,2.43,10.18c0.1,0.44-0.07,0.8-0.51,0.81c-1.43,0.03-2.87,0.1-4.28-0.04   c-0.72-0.07-0.48-0.8-0.37-1.3c0.75-3.21,1.51-6.42,2.26-9.63C325.69,435,325.84,434.99,326,434.98z"
   id="path63" />
	<path
   class="st32"
   d="M531.05,355.98c-1.53,0.59-2.49,0.35-3.25-0.92c-0.61-1.03-1.39-1.97-2.16-2.89   c-0.34-0.41-0.91-0.56-1.46-0.38c-0.7,0.22-0.5,0.84-0.52,1.34c-0.02,0.68-0.03,1.36,0.02,2.04c0.06,0.75-0.22,1.12-1,1.14   c-0.71,0.02-1.17-0.15-1.17-0.98c0.01-3.02,0.01-6.03,0.01-9.05c0-0.68,0.41-0.92,1.02-0.9c1.73,0.04,3.47,0.01,5.2,0.15   c1.32,0.1,2.25,0.84,2.51,2.21c0.27,1.39-0.01,2.67-1.38,3.24c-1.37,0.57-0.83,0.91-0.17,1.66   C529.58,353.62,530.25,354.8,531.05,355.98z"
   id="path64" />
	<path
   class="st33"
   d="M525,350.18c-0.69,0.11-1.44-0.1-1.42-1.66c0.02-1.53,0.88-1.5,1.91-1.43c1.17,0.07,2.71-0.14,2.65,1.61   C528.08,350.24,526.65,350.07,525,350.18z"
   id="path65" />
</g>
</svg>